<?xml version="1.0" encoding="utf-8"?>
<!-- Generator: Adobe Illustrator 22.0.1, SVG Export Plug-In . SVG Version: 6.00 Build 0)  -->
<svg version="1.1" id="Capa_1" xmlns="http://www.w3.org/2000/svg" xmlns:xlink="http://www.w3.org/1999/xlink" x="0px" y="0px"
	 viewBox="0 0 592.2 559.2" style="enable-background:new 0 0 592.2 559.2;" xml:space="preserve">
<style type="text/css">
	.st0{fill:#585858;}
	.st1{fill:#6C6C6C;}
	.st2{fill:#181818;}
	.st3{fill:#7A7A7A;}
	.st4{fill:#696969;}
</style>
<path d="M153,556c-1.3,0-2.7,0-4,0c-1.8-1.1-3.8-0.3-5.6-0.5c-4.8,0-9.7,0-14.5,0c-2.2,0.2-4.5-0.5-6.5,0.5c-0.3,0-0.7,0-1,0
	c-26.5-3.4-48.4-16.4-67.7-34.1C42.6,511.7,34.3,499,27,485.7c-9.7-17.7-17.6-36.3-22-56.1c-0.9-4.2-1.8-8.4-1.5-12.8
	c0.1-1.5-0.4-3.3,1.7-4c2.1,0.6,2.6,2.5,3.1,4.2c6,21.2,16.2,40,31.9,55.7c19.5,19.4,41.1,35.3,68.8,40.5
	c11.7,2.2,23.3,1.9,34.1-4.1c9.9-5.4,16.6-13.2,19.2-24.5c4.3-18.2,1.7-36.2-2.9-53.8c-4.6-17.8-12.1-34.6-19.9-51.2
	c-12.6-26.8-26.8-52.6-38-80.1c-8.5-21-15.8-42.5-18-65.2c-3.4-34.7,5-66.2,29.6-91.8c18-18.8,40.6-29.6,66.6-33
	c13.4-1.8,26.8-2.7,40.3-3.9c4-0.4,6.9-1.7,9.4-4.6c8-9.4,16-18.8,24.4-27.9c16.5-17.8,33.4-35.2,54.4-47.9
	c9.7-5.8,20.7-8.6,31.4-12c11.8-3.8,23.7-6.9,35.9-9.2c6-1.1,12.1-1.8,18.1-1.8c3.5-0.3,7,0.6,10.4-0.5c0.3,0,0.7,0,1,0
	c7.9,1,16,1,23.8,2.9c17.2,4.1,34,9,50,16.7c3.8,1.8,7.2,4,10.4,6.6c6.4,5.4,13.5,10.1,20.3,14.9c9.2,6.4,15.9,14.7,18.7,25.9
	c0.3,1.3,0.8,2.6,0.6,3.9c-1.6,8.6,2.3,15.8,6.2,22.9c13.5,24.2,19.3,50.3,18.6,77.9c-0.1,2.5-0.7,4.9-0.9,7.3
	c-0.4,3.7,0.6,5.8,4.8,5c0.8-0.2,1.7-0.1,2.5,0c1.3,0.1,2.6,0.3,3.4,1.5c0.1,2.2-1.8,2.7-3.2,3.2c-3.4,1.3-3.3,3.1-1.4,5.6
	c5.4,7.7,11.3,15,17.7,21.8c2.4,2.6,4.9,4.9,7.1,7.5c2.3,2.7,3.8,5.6,4.4,9.1c0,1,0,2,0,3c-0.9,3.4-3.2,5.6-6.1,7.3
	c-2.7,1.6-5.4,3.1-7.8,5.2c-3.9,3.5-4.1,5.7-0.8,9.7c1,1.3,2.3,2.4,3.2,3.8c4.4,6,3.5,11.4-2.5,15.9c-3,2.2-6.4,3.4-10.1,5.1
	c2,2,4.5,2.8,6.2,4.3c6.4,5.4,5.4,12.7-2.2,16.1c-6.1,2.8-6.6,3.4-6.1,10c0.3,4,1.1,7.8,0.9,11.8c-0.3,11-6,17.9-16.8,19.9
	s-21.7,1.4-32.5,0.8c-10.9-0.6-21.6-2.2-32.4-2.8c-6.2-0.3-10.8,2.1-14.2,7.1c-2.7,3.9-4.3,8.2-5.8,12.6
	c-8.6,24.7-15.2,49.8-20.9,75.4c-2.4,10.7,0.1,19.7,7.3,27.9c20.7,23.8,39.5,49.1,58.2,74.4c1.9,2.6,5.2,5.3,3.8,8.6
	c-1.7,3.7-5.8,2.1-9,2.2c-81.4,2.3-162.8,0.4-244.2,1.1c-6.1,0-12.2-0.9-18.2-1.3c-5.7-0.4-8.1-3.3-6.9-9
	c4.2-20.7,8.3-41.3,20.9-59.3c11.9-16.8,24.2-33.4,35.6-50.6c3.5-5.3,6.6-10.7,9.9-16.1c6.1-10.1,8.6-21.3,10-32.9
	c2-16.6,2.5-33.2,0.7-49.8c-0.1-0.5-0.1-1-0.2-1.5c-2.3-12.6-3.3-13.5-15.8-13.4c-9.2,0.1-17.5-2.7-25.4-7c-1.6-0.9-4.3-1.8-3.3-4.1
	c0.9-1.9,3.3-0.7,4.9-0.3c0.6,0.1,1.3,0.4,1.9,0.5c-0.1-1.3-1.2-1.6-2.1-2c-11.4-5.4-19.6-14.5-27.1-24.1
	c-18.2-23.3-29.5-49.8-36-78.6c-0.5-2.3-0.8-4.6-1.2-6.9c-1.6,4.6-2.8,9.1-3.7,13.8c-5.1,27-2,53.1,6.5,79
	c5.5,17.1,12.1,33.9,17.9,50.9c8.5,24.8,14.9,50.1,16.6,76.2c2.1,30.7,0.3,61.1-15,89.1c-13.1,23.8-32.8,39.1-58.5,47.4
	C162.9,555.9,157.8,554.9,153,556z"/>
<path class="st0" d="M-474.9,512.3c5.4,0,10.7,0,16.1,0c0.3,0.2,0.4,0.4,0.3,0.6c-0.1,0.2-0.2,0.3-0.3,0.3c-5.3,0-10.7,0-16,0
	c-0.3-0.2-0.4-0.4-0.3-0.6C-475.1,512.4-475,512.3-474.9,512.3z"/>
<path class="st1" d="M-207-45c0.1-0.3,0.1-0.6,0.1-0.9c3.7,0,7.3,0,11,0C-199.4-43.8-203.2-45.3-207-45z"/>
<path class="st2" d="M-599.9,373.3c-1.9-2,0.2-5.2-1.9-7.1c0-0.3,0-0.7,0-1c3-0.1,2.5,2.3,2.9,4C-600.3,370.3-599.5,372-599.9,373.3
	z"/>
<path class="st3" d="M-474.9,512.3c0,0.3,0.1,0.6,0.1,0.9c-2,0-4,0-6,0C-479.1,511-476.9,512.6-474.9,512.3z"/>
<path class="st4" d="M-458.8,513.2c0-0.3,0-0.6,0-0.9c1.7,0.2,3.6-1.1,5,0.9C-455.5,513.2-457.2,513.2-458.8,513.2z"/>
</svg>
