<?xml version="1.0" encoding="utf-8"?>
<!-- Generator: Adobe Illustrator 22.0.1, SVG Export Plug-In . SVG Version: 6.00 Build 0)  -->
<svg version="1.1" id="Capa_1" xmlns="http://www.w3.org/2000/svg" xmlns:xlink="http://www.w3.org/1999/xlink" x="0px" y="0px"
	 viewBox="0 0 480 57" style="enable-background:new 0 0 480 57;" xml:space="preserve">
<g>
	<path d="M156.2,2.6c-2.4,0-2.5,2-2.5,4c0,15.2,0,30.3,0,45.5c0,1.4-0.9,3.5,2.1,3.5c2.9-0.1,2-2.1,2-3.6c0.1-7.5,0-15,0-22.5
		c0-7.7,0.1-15.3-0.1-23C157.8,5.1,158.9,2.7,156.2,2.6z"/>
	<path d="M215,2.7c-6.6,0-13.3,0-19.9,0l0,0C201.7,3.2,208.3,3.2,215,2.7z"/>
	<path d="M98.4,2.4c-1.9,0-3,0.6-3.7,2.4C87.8,21.7,80.9,38.4,74,55.1c3.7,1.4,5.6,0,6.5-3.3c0.6-2.1,1.8-3.9,2.4-6
		c0.7-2.7,2.2-3.5,5-3.4c4.8,0.3,9.6,0.1,14.5,0.1c10.1,0,10.2,0,13.8,9.3c1.2,3,2.5,4.9,6.4,3.1C115.6,38.3,108.8,21.7,102,5
		C101.3,3.2,100.3,2.4,98.4,2.4z M85.7,38.3C89.8,28,93.8,18,98.3,6.8c4.4,11.1,8.5,21.1,12.7,31.5C102.5,38.3,94.3,38.3,85.7,38.3z
		"/>
	<path d="M2.1,2.7C1.4,2.7,0.7,2.6,0,2.5c0,17.7,0,35.3,0,53c0.4,0,0.7-0.1,1.1-0.1c0-16,0-32-0.1-47.9C1,5.8,1,4.1,2.1,2.7z"/>
	<path d="M41.1,2.5c-2.8-0.1-2.2,1.9-2.2,3.4c0,5.8-0.1,11.7,0,17.5c0,2.4-0.7,3.2-3.1,3.2c-9.3-0.1-18.6-0.1-28,0
		c-2.5,0-3.1-0.8-3-3.1c0.1-5.8,0.1-11.6,0-17.5c0-1.8,0.4-4-2.7-3.2C3.1,5.3,2.6,8,2.6,10.6c0,12.6,0.1,25.2,0,37.7
		c0,2.4,0.4,5-1.5,7.1C3.7,56,5,55.5,4.9,52.3c-0.2-6.1,0-12.3-0.1-18.5c-0.1-2.4,0.4-3.5,3.2-3.5c9.2,0.2,18.3,0.2,27.5,0
		c3-0.1,3.6,1.1,3.5,3.8c-0.2,6.2-0.1,12.3,0,18.5c0,1.4-0.5,3,2,3.1c2.4,0,2.1-1.4,2.1-2.9c0-15.6,0-31.3,0-46.9
		C42.9,4.4,43.5,2.6,41.1,2.5z"/>
	<path d="M394.6,2.5c-5.5-0.2-11,0.1-16.5-0.1c-2.6-0.1-3.4,0.6-3.4,3.3c0.2,7.6,0.1,15.3,0.1,22.9c0,7.1-0.2,14.3,0.1,21.4
		c0.1,1.8-2.1,5.4,1.9,5.3c3.6-0.1,1.6-3.3,1.7-5.1c0.3-4.6,0.2-9.3,0.1-14c-0.1-2.4,0.7-3.2,3.1-3.1c4.5,0.2,9,0.2,13.5,0
		c9.3-0.6,15.1-6.8,14.9-15.9C409.9,8.7,403.8,2.8,394.6,2.5z M395.3,29.6c-4.5,0.3-9,0-13.4,0.2c-2.7,0.1-3.4-1-3.3-3.5
		c0.2-2.8,0-5.6,0-8.5c0-12,0-12,13.7-11.9c8.7,0.1,13.5,4.2,13.6,11.6C406,24.4,402,29.2,395.3,29.6z"/>
	<path d="M477.8,50.3c-6.1-14.9-12.2-29.8-18.2-44.7c-0.7-1.8-1.3-3.3-3.7-3.1c-1.8,0.1-3,0.4-3.8,2.4
		c-6.7,16.8-13.6,33.5-20.4,50.3c3.2,1.2,4.9,0.3,5.7-2.8c0.6-2.2,1.8-4.3,2.5-6.5c0.8-2.5,2-3.6,5-3.4c5.3,0.4,10.7,0.1,16,0.1
		c9.1,0,9.2-0.1,12.4,8.5c1.3,3.5,2.9,5.4,6.7,4.5c0-0.3,0-0.7,0-1C478.5,53.5,478.4,51.8,477.8,50.3z M466.3,38.8
		c-7.1,0-14.3,0-21.4,0c-1.6,0-2.1-0.7-1.5-2.2c3.9-9.7,7.9-19.4,12.3-30.4c4.4,11,8.4,20.7,12.3,30.5
		C468.6,38.3,467.8,38.9,466.3,38.8z"/>
	<path d="M229.8,15.4c-1.4-7.9-6.5-12.3-14.8-12.6C208.3,4,201.7,4,195,2.8h0c-0.8,0.1-1,0.7-1,1.4c0,16.3,0,32.6,0,48.9
		c0,1.5,0.1,2.5,2,2.6c2,0,2.1-1,2.1-2.5c0-5.3,0-10.6,0-16c0-1.1-0.4-2.4,0.6-3.3c1.8-1.6,11.8,0,13.2,2.2
		c3.6,5.3,7.4,10.6,10.8,16.1c1.7,2.8,3.6,4.2,7.2,3c-4.8-7.1-9.6-14.2-14.4-21.3C227.3,29,231.3,23.7,229.8,15.4z M214.5,29.5
		c-4.3,0.2-8.7-0.1-13,0.1c-2.5,0.1-3.7-0.6-3.4-3.3c0.2-2.8,0-5.7,0.1-8.5c0-11.4,0-11.4,11.2-11.4c1.7,0,3.3,0,5,0
		c6.4,0.3,10.8,4.8,10.8,11.2C225.3,24.4,221,29.2,214.5,29.5z"/>
	<path d="M328.6,27.5c-4.5-1.6-9.1-2.8-13.5-4.5c-3.3-1.3-6.1-3.3-6.1-7.6c0-4.5,2.6-7.2,6.3-8.7c6.7-2.6,13-1.3,18.7,3
		c1.3,0.9,2.3,3.3,4.4,0.8c2.2-2.7-0.4-3.6-1.8-4.6c-4.7-3.5-10.1-4.6-15.9-4.5c-8.3,0.3-15.2,5.3-16.5,12.3
		c-1.2,6.6,2.9,11.8,11.7,14.7c4.7,1.6,9.4,3,14,4.7c4.3,1.6,6.7,4.8,6.2,9.6c-0.5,4.7-3.2,7.4-7.6,8.7c-7.8,2.4-14.6,0.6-20.7-4.6
		c-1.2-1-2.2-2.7-4-0.5c-1.6,2-0.3,3,1,4.1c1.1,1,2.4,1.7,3.6,2.6c3.5,2.5,8,2.3,11.7,4.3c0.7,0,1.3,0,2,0c0.4-1.4,1.5-0.9,2.4-1
		c9.4-0.6,15.5-5.6,16.5-13.4C341.8,35.9,337.7,30.7,328.6,27.5z"/>
</g>
</svg>
