<?xml version="1.0" encoding="utf-8"?>
<!-- Generator: Adobe Illustrator 22.0.1, SVG Export Plug-In . SVG Version: 6.00 Build 0)  -->
<svg version="1.1" id="Capa_1" xmlns="http://www.w3.org/2000/svg" xmlns:xlink="http://www.w3.org/1999/xlink" x="0px" y="0px"
	 viewBox="0 0 637 187" style="enable-background:new 0 0 637 187;" xml:space="preserve">
<style type="text/css">
	.st0{fill:#170002;}
</style>
<g>
	<path class="st0" d="M52,186.5c4,0,8,0,12,0C60,185.6,56,185.6,52,186.5z"/>
	<path class="st0" d="M226.4,2.8c-46.3,9.2-77.1,50.1-73.8,97.7c3.1,43.1,36.9,79,79.6,84.3c1.4,0.2,3.1-0.1,3.7,1.7h4
		c2.7-0.8,5.3-0.8,8,0c1,0,2,0,3,0c2.8-2,6.2-1.5,9.3-2c49.2-8,83.1-54.7,76-104.5C329.1,29.5,280.9-8.1,226.4,2.8z M244.7,170.5
		c-42.7-0.1-77.1-33.3-77.2-77.2C167.3,53,199.7,16,244.8,16c44.8,0,78,35.6,77.2,77.5C322.9,135.3,287.9,170.6,244.7,170.5z"/>
	<path class="st0" d="M132,9c0-3.7-0.5-6.9-5-8c-6.6-1.7-10.3,1-10.3,7.7c0,36,0.1,71.9-0.1,107.9c-0.1,14.9-4.3,28.3-15.6,39
		c-17.8,16.8-56.3,21-79.8,3.6c-9.7-7.2-9.9-6.8-18.3,1.2c0,1.3,0,2.7,0,4c0.6,0.8,0.8,1.9,1.6,2.5c10.9,8.8,22.5,16.1,36.6,18.4
		c2.6,0.4,5.4-0.6,7.8,1.1c1,0,2,0,3,0c4-1.7,8-1.6,12,0c0.7,0,1.3,0,2,0c2.2-1.7,4.8-1.5,7.3-1.9c18.8-2.8,34.8-10.7,46.4-26.4
		c8.9-12.1,12-26.1,12.3-40.8c0.3-16.8,0.1-33.6,0.1-50.5C132,47.6,132,28.3,132,9z"/>
	<path class="st0" d="M501.1,1c-6.7-1.5-10.3,1.1-10.3,7.9c0,33.2,0,66.3,0,99.5c0,3.8-0.2,7.6-0.8,11.4
		c-4.5,33-36.6,56.3-70.8,48.9c-27.8-6.1-46.1-29.3-46.1-57.9c0-34.2,0-68.3,0-102.5c0-5.3-2.3-7.7-7.4-7.8
		c-5.3-0.1-7.8,2.4-7.8,7.9c0,35.2-0.2,70.3,0.1,105.5c0.3,35.4,28,66.2,63.1,70.9c1.2,0.2,2.9-0.3,3,1.7c0.7,0,1.3,0,2,0
		c3.6-1.3,7.4,0.2,11-0.8c1.8-0.3,3.6-0.6,5.4-0.8c35.9-4.9,63.5-36.3,63.6-72.6c0.1-14,0-28,0-42c0-20.7,0-41.3,0-62
		C506.1,4.5,505.2,1.9,501.1,1z"/>
	<path class="st0" d="M640,129.5c0-2,0-4,0-6C638.5,125.5,638.4,127.5,640,129.5z"/>
	<path class="st0" d="M574,186.5c3.3,0,6.7,0,10,0c0-0.3,0-0.6,0-0.9c-3.4,0-6.7,0-10.1,0C574,185.9,574,186.2,574,186.5z"/>
	<path class="st0" d="M558.3,22.8c12.2-8.4,25.2-8.9,38.1-1.7c11.5,6.3,16.2,16.9,17.3,29.6c0.4,4.8,3.2,6.4,9,5.9
		c4.3-0.4,6.3-2.9,6-7.4c-0.7-12.2-5-23-13.4-31.9c-14.4-15.2-32-20.1-51.7-13.7c-20,6.4-31.9,21.1-34.3,41.8
		c-3.5,29.8,19.4,54.8,49.5,55.2c20.5,0.3,36.7,17.9,34.6,39.3c-2.1,21-25.4,37.4-47.8,27.8c-13.5-5.8-20.5-16.3-21.3-30.9
		c-0.3-5.3-2.3-6.8-8.8-6.6c-4.8,0.2-6.4,1.8-6.4,6.8c0,6.2,1.4,12.2,4,17.9c8,17.9,22,27.8,41.2,30.7c3.4-2.4,6.7-2.4,10.1,0
		c0.6-0.2,1.2-0.6,1.9-0.6c23.8-2.6,46.1-26.3,42.2-55.3c-2.6-19.6-13.6-33-31.8-40.6c-7.8-3.2-16.3-2.6-24.4-4.1
		c-14.7-2.8-23.9-12.3-27.3-27C541.6,45.2,547.3,30.4,558.3,22.8z"/>
</g>
</svg>
