<?xml version="1.0" encoding="utf-8"?>
<!-- Generator: Adobe Illustrator 22.0.1, SVG Export Plug-In . SVG Version: 6.00 Build 0)  -->
<svg version="1.1" id="Capa_1" xmlns="http://www.w3.org/2000/svg" xmlns:xlink="http://www.w3.org/1999/xlink" x="0px" y="0px"
	 viewBox="0 0 51.2 51.2" style="enable-background:new 0 0 51.2 51.2;" xml:space="preserve">
<style type="text/css">
	.st0{fill:#040006;}
</style>
<path class="st0" d="M1.1,6.1c1.2-1.6,2.7-1.7,4.2-1.7c13.5,0,27,0,40.4,0c1.6,0,3.1,0.1,4.2,1.7c0,0.7,0,1.4,0,2.1
	c-1.2,1.2-2.5,1.3-3.9,1.3c-13.7,0-27.4,0-41,0c-1.4,0-2.8-0.1-3.9-1.3C1.1,7.5,1.1,6.8,1.1,6.1z"/>
<path class="st0" d="M50.1,45.1c-1.2,1.6-2.7,1.7-4.2,1.7c-13.5,0-27,0-40.4,0c-1.6,0-3.1-0.1-4.2-1.7c0-0.7,0-1.4,0-2.1
	c1.2-1.2,2.5-1.3,3.9-1.3c13.7,0,27.4,0,41,0c1.4,0,2.8,0.1,3.9,1.3C50.1,43.7,50.1,44.4,50.1,45.1z"/>
<path class="st0" d="M50.1,26.6C48.9,28,47.5,28,46.1,28c-13.7,0-27.4,0-41.1,0c-1.4,0-2.8-0.1-3.9-1.4c0-0.7,0-1.4,0-2.1
	c1.1-1.3,2.5-1.4,3.9-1.4c13.7,0,27.4,0,41.1,0c1.4,0,2.8,0.1,3.9,1.4C50.1,25.3,50.1,25.9,50.1,26.6z"/>
</svg>
